<svg width="363" height="568" viewBox="0 0 363 568" fill="none" xmlns="http://www.w3.org/2000/svg">
<mask id="mask0_1_7" style="mask-type:luminance" maskUnits="userSpaceOnUse" x="0" y="0" width="363" height="568">
<path fill-rule="evenodd" clip-rule="evenodd" d="M135.624 20.6576L135.57 41.3153L116.234 50.362C88.4503 63.3617 62.2841 89.9634 48.4308 119.3L38.0622 141.256L20.0101 141.264L1.95796 141.272V167.535C1.95796 181.982 1.41506 201.472 0.754489 210.849C-0.406195 227.287 -0.366079 227.423 1.85633 214.573C3.12667 207.243 4.26863 188.179 4.397 172.207L4.63235 143.167L60.1339 145.059L115.635 146.952L128.331 132.294C137.402 121.821 141.026 115.35 141.026 109.621C141.026 105.213 140.101 101.033 138.972 100.338C137.841 99.6418 137.274 103.469 137.712 108.843C138.405 117.33 136.899 120.278 126.25 131.276C115.218 142.666 112.79 143.937 102.047 143.937H90.103L95.2539 133.875C101.13 122.397 123.859 100.183 132.538 97.4375C135.736 96.4272 138.333 93.5805 138.312 91.1149C138.287 88.4281 137.482 87.7537 136.306 89.4356C135.225 90.9789 129.943 94.9026 124.571 98.1571C112.445 105.495 96.7917 122.525 90.9562 134.725C88.2978 140.28 84.6018 143.937 81.6493 143.937C77.1724 143.937 77.3516 142.756 83.7433 130.18C94.7297 108.574 133.064 74.7327 136.643 83.4809C137.351 85.2135 138.025 67.7651 138.14 44.7085L138.352 2.78812L185.822 1.9938L233.292 1.20214L184.485 0.599738L135.677 0L135.624 20.6576ZM226.419 29.9869C226.318 43.5463 225.261 68.4368 224.071 85.2961L221.907 115.949L234.953 128.938C242.131 136.085 248.001 142.98 248.001 144.265C248.001 145.552 272.975 146.371 303.495 146.088C334.015 145.806 351.73 145.155 342.862 144.644L326.735 143.713L322.218 131.039C310.609 98.4583 279.559 64.7264 247.56 49.9249L228.941 41.3153L229.866 23.3231C230.377 13.4261 229.85 5.33101 228.7 5.33101C227.548 5.33101 226.523 16.4248 226.419 29.9869ZM145.864 12.6611C145.409 13.7593 145.388 37.6795 145.816 65.8139L146.597 116.968L157.383 113.175C174.664 107.097 189.483 106.108 202.826 110.141L215.152 113.868L216.853 88.2548C217.789 74.165 218.562 50.9458 218.57 36.6507L218.583 10.662H182.637C162.865 10.662 146.319 11.563 145.864 12.6611ZM177.911 16.3982C184.225 16.1396 191.649 17.1312 194.412 18.6025C197.37 20.1805 199.793 20.2765 200.314 18.8344C200.801 17.4884 204.66 15.5319 208.891 14.4843C216.567 12.5838 216.577 12.5998 214.794 22.95C213.809 28.6542 213.01 36.6587 213.018 40.7395C213.026 44.8204 211.921 51.0737 210.563 54.6375C209.161 58.3105 209.105 61.7437 210.429 62.5593C212.825 64.0334 213.954 109.286 211.595 109.286C210.881 109.286 207.046 107.705 203.072 105.772C193.495 101.111 171.172 101.966 160.744 107.396L152.381 111.749L152.352 75.1992C152.333 55.0959 153.419 37.2904 154.764 35.6298C156.348 33.6733 155.77 32.058 153.13 31.0478C150.665 30.1069 149.049 26.1566 149.049 21.0735C149.049 12.9277 149.325 12.7278 157.741 14.7669C162.52 15.9237 171.6 16.6594 177.911 16.3982ZM154.911 24.1894C155.438 25.7647 157.011 27.0549 158.41 27.0549C159.808 27.0549 161.381 25.7647 161.908 24.1894C162.434 22.6141 160.862 21.324 158.41 21.324C155.957 21.324 154.385 22.6141 154.911 24.1894ZM179.419 27.6093C179.786 33.5827 180.091 33.6813 185.547 29.6084C191.986 24.8025 191.312 21.324 183.942 21.324C180.46 21.324 179.144 23.1499 179.419 27.6093ZM203.05 24.1894C203.577 25.7647 205.15 27.0549 206.548 27.0549C207.947 27.0549 209.52 25.7647 210.047 24.1894C210.573 22.6141 209.001 21.324 206.548 21.324C204.096 21.324 202.524 22.6141 203.05 24.1894ZM166.767 31.4476C166.042 32.6178 166.524 35.3046 167.834 37.421C169.639 40.3317 170.976 40.5183 173.309 38.194C175.007 36.5014 175.587 33.8119 174.6 32.2179C172.487 28.8114 168.636 28.4329 166.767 31.4476ZM191.141 33.0522C186.924 36.2428 186.862 36.9732 190.556 40.0279C193.982 42.8586 195.308 42.5841 198.373 38.4072C204.465 30.1042 199.702 26.5751 191.141 33.0522ZM158.166 43.6503C155.901 49.5357 158.915 52.5397 163.001 48.4668C165.414 46.0626 165.422 44.5725 163.044 42.2029C160.664 39.8306 159.503 40.1745 158.166 43.6503ZM178.467 42.744C174.913 45.0203 174.91 45.6068 178.446 47.8671C181.693 49.9462 181.794 51.0604 179.002 53.8432C176.21 56.6259 175.148 56.5833 173.306 53.6139C170.586 49.2265 166.227 51.4922 162.073 59.4567C160.394 62.674 159.977 64.4145 161.145 63.3297C162.311 62.2422 164.734 62.5673 166.529 64.052C168.88 65.9952 172.554 64.0014 179.633 56.9458C187.731 48.8747 188.852 46.5264 185.974 43.6583C183.594 41.286 181.201 40.9954 178.467 42.744ZM202.229 43.3144C202.061 45.1483 202.136 48.7467 202.398 51.3109C202.919 56.426 198.536 57.6415 195.752 53.1501C194.642 51.3589 192.749 52.0306 190.582 54.9867C187.657 58.9742 188.272 60.8241 194.837 67.8077C199.058 72.2938 202.518 76.9371 202.524 78.1232C202.532 79.3094 203.74 79.5386 205.211 78.6323C206.682 77.7261 207.886 73.8184 207.886 69.9455C207.886 64.4705 207.172 63.6176 204.676 66.1045C197.488 73.2693 194.062 66.5203 200.991 58.8516C206.179 53.1101 209.316 39.9825 205.5 39.9825C203.871 39.9825 202.398 41.4832 202.229 43.3144ZM135.677 50.4873C135.677 54.1257 130.711 58.2626 118.962 64.4119C96.6071 76.1161 73.7946 99.8204 62.8323 122.733C55.9886 137.039 52.8248 141.005 48.158 141.122C42.9215 141.253 42.507 140.483 44.7134 134.699C58.0532 99.7271 85.1688 69.407 118.294 52.4198C134.567 44.0741 135.677 43.9515 135.677 50.4873ZM260.274 59.9738C277.577 70.0787 299.906 94.1935 310.168 113.865C323.323 139.081 324.574 143.937 317.929 143.937C314.214 143.937 312.088 141.565 310.879 136.071C309.186 128.395 293.265 102.643 283.592 91.9385C273.964 81.2845 253.995 66.6216 241.77 61.2319C233.006 57.3696 229.281 54.163 229.281 50.4846C229.281 45.4628 229.701 45.4175 239.31 49.4158C244.827 51.7108 254.259 56.4633 260.274 59.9738ZM178.184 67.4559C174.908 69.9001 174.568 71.7367 176.753 75.1858C178.328 77.6728 178.689 80.6315 177.558 81.759C176.427 82.8865 174.365 82.0442 172.974 79.8878C170.754 76.4466 170.123 76.4546 167.81 79.9651C160.688 90.779 169.147 92.9274 179.494 82.9291C184.217 78.3684 188.927 74.6341 189.962 74.6341C193.233 74.6341 191.986 82.1321 188.496 83.4356C186.186 84.2992 186.803 85.9625 190.502 88.8252C195.174 92.4423 196.348 92.4796 199.796 89.1024C203.262 85.7092 202.451 83.9687 193.11 74.7434C184.241 65.9899 181.768 64.7824 178.184 67.4559ZM157.072 73.8717C157.072 80.5382 157.412 80.7674 161.399 76.7931C163.78 74.4208 164.914 71.1663 163.916 69.559C160.635 64.2653 157.072 66.5123 157.072 73.8717ZM242.797 87.4898C262.775 100.13 288.117 129.751 288.117 140.461C288.117 148.301 280.8 142.788 270.699 127.339C263.117 115.744 255.126 107.753 243.474 100.111C234.081 93.9536 226.898 87.2846 226.794 84.6297C226.539 78.2911 228.938 78.7176 242.797 87.4898ZM158.813 91.8692C156.775 97.1656 158.008 99.7138 161.894 98.2344C163.261 97.7147 163.547 94.9799 162.531 92.1544C160.774 87.2739 160.589 87.2606 158.813 91.8692ZM178.467 92.9807C178.467 94.2762 181.487 95.9128 185.177 96.6138C190.606 97.6507 191.31 97.2002 188.86 94.2602C185.482 90.2006 178.467 89.3397 178.467 92.9807ZM202.919 93.0447C200.229 94.7106 200.103 95.7902 202.43 97.2242C206.099 99.4846 208.854 97.4828 207.495 93.5458C206.939 91.9305 205.051 91.7253 202.919 93.0447ZM239.377 99.5779C251.141 106.98 267.351 124.268 273.325 135.781L277.556 143.937H265.337C254.083 143.937 252.008 142.804 239.09 129.618C226.034 116.291 225.135 114.537 226.114 104.296C226.695 98.2451 227.668 93.2926 228.278 93.2926C228.888 93.2926 233.883 96.1207 239.377 99.5779ZM171.316 114.878C136.603 121.278 114.362 148.354 114.309 184.282C114.215 246.996 190.208 277.202 234.258 231.96C246.894 218.984 253.35 201.853 253.35 181.302C253.35 139.566 213.301 107.137 171.316 114.878ZM212.007 123.591C233.621 133.624 247.405 153.032 249.857 176.891C256.057 237.222 184.787 273.67 138.983 233.589C109.522 207.808 110.222 158.398 140.408 133.139C160.846 116.035 187.943 112.423 212.007 123.591ZM158.41 127.734C133.794 139.243 123.832 155.5 123.723 184.346C123.651 202.831 124.407 205.851 131.741 216.258C148.982 240.73 174.223 250.115 202.558 242.59C225.702 236.443 245.298 209.543 245.298 183.92C245.298 160.855 230.08 137.015 209.373 127.64C195.156 121.206 172.282 121.246 158.41 127.734ZM195.444 131.02L211.082 130.271L223.972 144.246C238.382 159.866 241.307 168.433 235.953 179.3C233.956 183.357 233.316 186.063 234.531 185.314C235.747 184.562 237.472 185.842 238.36 188.152C241.671 196.746 239.759 204.796 232.017 214.872C217.476 233.797 215.861 234.801 199.937 234.799C191.807 234.796 179.099 235.441 171.696 236.23C159.637 237.518 157.484 236.913 150.969 230.419C146.971 226.434 143.7 221.469 143.7 219.384C143.7 217.297 142.55 216.3 141.144 217.167C139.737 218.033 136.811 216.004 134.64 212.659C129.408 204.596 129.449 158.296 134.693 150.708C140.686 142.039 148.603 139.235 160.715 141.496C168.647 142.978 172.811 142.559 175.424 140.024C178.483 137.052 178.179 136.207 173.517 134.733C170.468 133.768 165.598 134.245 162.699 135.794C154.719 140.048 150.314 139.512 154.264 134.768C158.089 130.175 167.085 128.163 174.456 130.252C177.398 131.087 186.841 131.433 195.444 131.02ZM194.744 139.979C197.587 142.81 201.416 143.495 207.567 142.269C218.466 140.096 213.558 136.042 199.959 135.981C191.682 135.946 191.125 136.372 194.744 139.979ZM180.005 146.381C176.368 150.388 175.991 152.651 178.253 156.868C179.842 159.826 181.142 165.922 181.142 170.416C181.142 177.384 180.144 178.589 174.37 178.589C170.645 178.589 163.496 176.88 158.482 174.793C150.528 171.48 148.95 171.498 146.086 174.937C143.42 178.138 143.893 179.967 148.6 184.658C151.79 187.835 154.398 188.968 154.398 187.177C154.398 185.045 159.017 183.92 167.77 183.92C181.078 183.92 181.142 183.962 181.126 192.583C181.115 197.346 179.457 204.401 177.438 208.258C174.218 214.408 174.317 215.743 178.237 219.091C185.333 225.144 190.251 227.807 188.183 224.478C187.191 222.876 188.454 220.408 190.989 218.992C194.816 216.857 195.014 215.722 192.158 212.289C190.264 210.015 188.515 202.402 188.272 195.371C187.849 183.219 188.199 182.544 195.332 181.729C199.459 181.257 207.337 183.211 212.839 186.068L222.843 191.266L223.263 185.716C223.991 176.07 219.442 173.554 204.12 175.132C190.951 176.486 189.85 176.152 188.323 170.339C187.421 166.903 188.413 160.637 190.526 156.417C193.821 149.836 193.834 148.21 190.62 145.006C185.835 140.237 185.549 140.275 180.005 146.381ZM360.326 187.529V231.123L321.488 229.809C288.259 228.684 282.867 229.055 284.143 232.368C287.558 241.233 243.979 285.209 231.781 285.209C228.235 285.209 228.248 286.064 234.862 466.463C236.662 515.575 238.852 556.602 239.727 557.637C241.548 559.79 241.358 553.028 235.878 421.429C233.659 368.071 232.166 324.136 232.568 323.792C232.966 323.448 239.911 319.882 248.001 315.867C277.179 301.388 302.069 276.914 315.268 249.723L324.085 231.555L343.541 233.373L363 235.191V189.563C363 164.47 362.398 143.937 361.663 143.937C360.927 143.937 360.326 163.553 360.326 187.529ZM151.724 153.248V159.896L158.41 154.101C162.087 150.915 165.095 147.922 165.095 147.456C165.095 146.986 162.087 146.603 158.41 146.603C153.066 146.603 151.724 147.935 151.724 153.248ZM212.122 155.266C214.909 158.563 217.503 161.764 217.885 162.374C218.27 162.985 218.583 160.285 218.583 156.377C218.583 150.875 217.281 149.268 212.82 149.268C207.126 149.268 207.118 149.34 212.122 155.266ZM9.98112 187.38V223.654L63.4688 223.564C92.8871 223.513 116.957 222.932 116.957 222.268C116.957 221.607 115.076 216.607 112.779 211.156C107.901 199.588 107.053 172.474 111.241 161.929C113.734 155.647 113.491 154.596 109.535 154.573C106.997 154.557 83.5615 153.77 57.4515 152.827L9.98112 151.107V187.38ZM260.935 154.087C254.278 154.855 253.973 155.465 256.255 163.398C259.902 176.075 259.212 195.125 254.637 208.053C251.564 216.729 251.347 220.003 253.741 221.477C255.482 222.548 275.061 223.558 297.25 223.718C319.44 223.878 341.506 224.721 346.285 225.587L354.977 227.162V189.445V151.731L311.518 152.499C287.617 152.92 264.853 153.637 260.935 154.087ZM30.9242 160.322C31.411 161.548 33.9864 161.391 36.6501 159.97C39.3138 158.549 56.7427 157.499 75.3779 157.641C105.601 157.867 109.07 158.366 107.484 162.244C106.505 164.637 104.799 173.791 103.694 182.587C102.039 195.741 102.571 200.235 106.687 207.909C111.15 216.231 111.231 217.337 107.425 218.142C101.119 219.475 90.2127 216.223 90.2127 213.011C90.2127 211.428 92.534 210.951 95.5615 211.907C99.1719 213.051 100.91 212.387 100.91 209.866C100.91 202.866 97.5833 202.802 88.5947 209.636C83.6551 213.392 76.8836 216.41 73.5459 216.343C70.211 216.279 59.6578 215.799 50.0969 215.277C39.8807 214.72 29.1886 215.743 24.1634 217.758C13.4658 222.052 10.8637 218.702 16.3622 207.717C18.9269 202.594 19.6651 197.442 18.3626 193.758C15.9263 186.865 17.333 178.589 20.9434 178.589C22.3448 178.589 21.6548 175.049 19.411 170.725C13.0192 158.408 13.982 154.167 22.6845 156.294C26.7281 157.281 30.4375 159.093 30.9242 160.322ZM140.521 156.108C139.734 157.478 138.293 161.924 137.317 165.992C135.661 172.89 135.907 173.159 140.959 170.016C146.886 166.327 146.907 166.242 143.973 158.773C142.861 155.94 141.307 154.74 140.521 156.108ZM165.561 159.943C158.725 165.621 159.83 170.592 167.928 170.592C171.912 170.592 173.119 168.734 173.119 162.596C173.119 153.226 173.49 153.357 165.561 159.943ZM197.292 159.736C193.76 166.317 195.637 170.608 202.026 170.552C211.747 170.464 213.571 166.506 206.805 160.17L200.32 154.098L197.292 159.736ZM223.154 159.941C222.346 163.017 223.876 167.817 226.764 171.269L231.776 177.256L231.867 170.144C232.038 156.318 225.97 149.21 223.154 159.941ZM277.077 161.087C281.158 163.19 286.085 166.818 288.024 169.147C292.23 174.199 289.42 178.287 284.862 173.745C280.602 169.499 278.305 169.777 276.382 174.774C275.355 177.443 277.671 181.387 282.782 185.674C292.073 193.465 293.249 198.385 285.216 195.842C281.367 194.624 277.636 195.952 273.181 200.126C266.385 206.489 264.369 214.504 270.065 212.521C271.905 211.878 273.055 209.381 272.622 206.966C271.774 202.237 276.088 200.939 278.693 205.14C279.634 206.659 282.145 206.174 284.868 203.948C287.39 201.885 292.404 197.89 296.007 195.067C301.952 190.413 302.171 189.549 298.376 185.767C295.458 182.859 293.343 182.443 291.388 184.391C289.845 185.929 287.259 186.372 285.638 185.372C283.838 184.264 286.965 180.004 293.683 174.409C304.225 165.632 304.07 164.608 292.129 164.139C283.17 163.787 283.536 158.653 292.583 157.779C298.93 157.163 303.3 158.952 309.964 164.888C314.861 169.249 317.995 173.687 316.928 174.75C315.864 175.814 313.454 175.411 311.574 173.857C309.127 171.832 306.694 172.104 302.976 174.812C297.897 178.511 297.895 178.663 302.856 182.28C307.357 185.559 309.05 185.066 318.076 177.834C323.662 173.362 328.233 168.777 328.233 167.649C328.233 166.522 324.414 165.224 319.747 164.763C315.08 164.304 310.767 162.43 310.165 160.597C308.648 155.993 323.141 156.249 329.576 160.938C333.857 164.059 335.17 164.059 338.302 160.938C340.329 158.917 344.44 157.265 347.438 157.265C352.262 157.265 352.688 158.411 351.142 167.26C350.184 172.759 349.417 180.742 349.438 185.007C349.484 193.798 342.287 210.575 338.468 210.575C337.077 210.575 336.684 211.774 337.593 213.24C338.503 214.706 341.062 215.906 343.279 215.906C346.098 215.906 346.801 214.298 345.617 210.575C343.621 204.305 348.299 203.277 350.679 209.461C354.867 220.336 346.999 225.398 336.347 218.683C333.876 217.127 331.194 217.228 329.1 218.96C327.078 220.632 322.331 220.877 316.977 219.581C312.136 218.414 303.615 217.814 298.042 218.254C292.468 218.691 286.098 217.553 283.886 215.724C280.843 213.206 279.115 213.15 276.772 215.485C273.705 218.542 256.025 219.925 256.025 217.105C256.025 212.755 264.885 199.643 271.138 194.742C276.505 190.533 277.564 188.328 275.302 186.073C273.042 183.821 271.581 184.858 269.562 190.149C265.676 200.339 263.08 198.894 264.925 187.566C265.882 181.673 264.973 174.249 262.598 168.582C260.453 163.467 258.699 158.827 258.699 158.272C258.699 155.825 270.322 157.606 277.077 161.087ZM46.3367 162.244C40.0332 163.611 39.2737 164.494 42.3251 166.924C45.2055 169.219 47.2888 168.753 51.2335 164.925C54.0657 162.177 55.8709 160.071 55.2451 160.245C54.6193 160.418 50.6104 161.319 46.3367 162.244ZM22.0426 165.304C22.9679 166.794 24.8427 167.324 26.212 166.479C29.9213 164.195 29.2313 162.596 24.5325 162.596C22.2405 162.596 21.1199 163.814 22.0426 165.304ZM63.6908 163.35C64.3059 163.766 66.7717 165.594 69.1733 167.415C72.7356 170.115 73.8321 169.976 75.1078 166.663C76.2658 163.651 74.843 162.596 69.6253 162.596C65.7501 162.596 63.0784 162.934 63.6908 163.35ZM92.8871 163.603C92.8871 164.155 94.6923 166.101 96.8987 167.927C100.185 170.645 100.91 170.462 100.91 166.919C100.91 164.541 99.105 162.596 96.8987 162.596C94.6923 162.596 92.8871 163.049 92.8871 163.603ZM54.7717 169.926C51.1961 173.921 51.1346 175.084 54.3518 178.021C57.2001 180.625 59.4466 180.734 63.6828 178.474C69.0048 175.635 69.0476 175.262 64.6135 170.379C59.0106 164.208 59.8557 164.248 54.7717 169.926ZM82.7859 169.417C77.3596 172.154 77.1537 172.863 80.8951 175.958C83.6925 178.271 84.198 180.319 82.4168 182.094C80.633 183.872 78.4855 183.72 75.9716 181.641C73.0485 179.223 71.4679 179.402 68.9433 182.438C65.3302 186.774 67.2718 191.916 72.5216 191.916C74.383 191.916 78.7342 188.918 82.1895 185.252C85.6448 181.587 90.0656 178.589 92.0152 178.589C93.9649 178.589 95.5615 177.389 95.5615 175.923C95.5615 174.457 94.4462 173.258 93.0823 173.258C91.721 173.258 90.2154 171.704 89.7393 169.801C89.0627 167.095 87.5543 167.012 82.7859 169.417ZM268.581 170.744C267.401 175.243 267.824 175.665 270.945 173.084C275.2 169.563 275.989 165.261 272.384 165.261C271.084 165.261 269.372 167.729 268.581 170.744ZM340.268 170.592C342.033 176.134 337.885 178.042 334.82 173.098C333.71 171.307 331.814 171.984 329.64 174.948C326.824 178.786 326.893 180.297 330.025 183.419C332.122 185.511 334.157 186.777 334.55 186.236C334.94 185.695 337.893 181.793 341.107 177.562C348.031 168.457 348.462 165.261 342.763 165.261C339.786 165.261 339.064 166.81 340.268 170.592ZM32.0502 169.838C29.9668 170.584 29.325 173.466 30.3412 177.507C31.6035 182.515 31.074 183.637 28.0038 182.462C24.9256 181.286 24.3426 182.547 25.407 188.097C26.6532 194.59 27.0223 194.79 29.4426 190.25C30.9082 187.502 34.3902 182.734 37.1796 179.655C41.2153 175.204 41.5496 173.503 38.819 171.349C36.9309 169.862 33.8848 169.179 32.0502 169.838ZM42.031 182.638C39.1854 186.055 39.4662 187.401 43.6837 190.581C46.4758 192.689 49.5326 194.451 50.4793 194.496C52.1856 194.582 56.2426 186.164 54.8413 185.45C54.4374 185.244 52.1615 183.603 49.784 181.801C46.2912 179.154 44.7963 179.316 42.031 182.638ZM92.1703 184.599C91.4616 186.441 92.5367 189.485 94.5586 191.37C97.6154 194.214 98.2358 193.649 98.2358 188.022C98.2358 180.966 94.4034 178.805 92.1703 184.599ZM137.501 188.83C136.648 193.073 136.875 199.99 138.004 204.196L140.058 211.849L143.069 203.237C145.401 196.568 145.289 193.102 142.564 187.87L139.047 181.116L137.501 188.83ZM315.155 187.563C310.566 193.076 318.589 199.241 324.254 194.555C327.332 192.009 327.572 190.336 325.264 187.563C323.596 185.559 321.32 183.92 320.21 183.92C319.1 183.92 316.824 185.559 315.155 187.563ZM340.88 185.53C339.808 186.599 338.931 189.312 338.931 191.562C338.931 194.56 339.722 194.859 341.907 192.681C343.541 191.053 344.421 188.336 343.857 186.652C343.292 184.965 341.953 184.461 340.88 185.53ZM158.383 191.962C155.928 195.92 167.984 208.762 171.169 205.588C172.49 204.271 173.169 200.355 172.677 196.887C171.709 190.072 161.694 186.62 158.383 191.962ZM193.144 191.969C192.216 193.462 192.896 199.022 194.65 204.319L197.841 213.955L206.008 205.241C213.815 196.917 213.957 196.37 209.183 192.892C203.283 188.592 195.517 188.145 193.144 191.969ZM228.612 190.773C227.51 191.89 226.606 197.042 226.606 202.224C226.606 208.927 227.433 210.817 229.476 208.781C231.054 207.208 231.955 202.056 231.482 197.332C231.006 192.607 229.714 189.656 228.612 190.773ZM31.5741 195.677C29.3972 198.292 29.3089 199.971 31.2906 201.192C35.2434 203.628 32.0341 207.992 27.5492 206.278C25.538 205.51 23.099 206.161 22.1282 207.728C18.2289 214.019 31.0098 210.068 44.3978 200.846C45.5157 200.075 37.7546 191.916 35.9066 191.916C35.246 191.916 33.2964 193.609 31.5741 195.677ZM55.6436 195.677C53.4666 198.292 53.3784 199.971 55.3601 201.192C59.821 203.94 55.5553 208.304 50.0969 206.576C47.4038 205.724 44.4245 206.275 43.4778 207.8C40.3969 212.768 53.0254 210.756 61.1608 204.982C67.4456 200.523 68.4084 198.636 65.9266 195.653C61.9952 190.935 59.5883 190.941 55.6436 195.677ZM80.7801 194.699C79.8307 196.229 80.4646 199.174 82.1869 201.243C84.6473 204.199 86.3883 204.34 90.3036 201.901C93.9969 199.604 94.5479 197.908 92.4244 195.357C88.9664 191.207 83.1496 190.877 80.7801 194.699ZM302.118 197.687C297.79 202 306.648 208.72 311.435 204.759C314 202.637 313.898 201.237 310.967 198.316C306.429 193.793 306.052 193.766 302.118 197.687ZM327.69 199.734C323.403 203.863 323.416 204.292 327.885 207.075C331.68 209.437 333.269 209.021 335.783 205.009C339.719 198.727 339.706 198.103 335.588 196.583C333.75 195.906 330.196 197.325 327.69 199.734ZM68.8176 206.576C66.0603 209.89 66.3465 210.567 70.4971 210.535C73.2491 210.511 77.1082 209.479 79.0712 208.24C81.9167 206.441 81.7376 205.641 78.1833 204.281C72.3398 202.048 72.6527 201.97 68.8176 206.576ZM150.143 206.79C150.924 212.086 156.805 215.842 161.509 214.043C164.087 213.056 163.288 211.257 158.653 207.624C150.82 201.483 149.341 201.336 150.143 206.79ZM289.623 206.784C285.216 209.996 285.127 210.623 288.887 212.059C291.233 212.958 294.948 213.291 297.141 212.8C300.363 212.078 300.505 211.065 297.876 207.523C295.079 203.751 293.926 203.647 289.623 206.784ZM210.56 211.907L204.278 218.571H212.322C222.076 218.571 223.758 217.153 221.993 210.42C220.207 203.615 218.118 203.887 210.56 211.907ZM313.711 210.271C312.906 211.572 314.888 213.323 318.118 214.165C324.858 215.922 326.856 214.824 324.331 210.753C322.194 207.304 315.733 207.014 313.711 210.271ZM161.595 220.733C153.705 221.666 153.146 225.691 160.282 230.18C162.977 231.872 167.452 231.941 172.621 230.369L180.73 227.9L174.918 223.873C171.723 221.658 165.727 220.245 161.595 220.733ZM196.001 225.456C191.243 228.921 191.794 229.231 202.695 229.193C209.226 229.169 216.377 227.935 218.583 226.445C221.557 224.441 220.683 224.182 215.205 225.451C211.14 226.392 206.324 225.928 204.5 224.419C202.181 222.5 199.627 222.812 196.001 225.456ZM236.338 236.851C227.229 246.146 226.363 248.262 227.304 258.842L228.347 270.549L228.813 259.487C229.184 250.677 231.241 246.471 238.909 238.829C247.044 230.721 250.358 229.233 260.304 229.233C266.776 229.233 272.071 229.892 272.071 230.699C272.071 239.794 244.691 267.936 232.993 270.863C229.479 271.74 226.606 274.206 226.606 276.338C226.606 282.852 257.517 259.268 269.212 243.83C279.514 230.227 279.661 229.742 273.954 228.215C270.712 227.349 263.189 226.624 257.236 226.605C248.175 226.573 244.771 228.242 236.338 236.851ZM19.5661 231.208L41.1858 232.101L48.9844 248.659C59.5295 271.05 90.6326 302.151 114.94 314.609C124.865 319.698 132.984 325.058 132.984 326.524C132.984 327.99 128.777 379.568 123.634 441.141C118.492 502.714 114.285 556.445 114.285 560.547L114.282 568L172.45 567.47C204.444 567.179 233.627 566.145 237.304 565.175C240.981 564.202 215.409 563.935 180.473 564.58L116.957 565.753L116.959 559.422C116.962 551.94 135.086 330.778 136.809 317.195C137.461 312.064 138.836 294.535 139.868 278.241L141.74 248.617L131.355 238.997L120.968 229.377L59.4573 229.849C25.6263 230.108 7.6758 230.718 19.5661 231.208ZM63.6453 247.817C74.3081 267.758 97.5565 291.164 117.593 302.132C127.05 307.306 132.952 312.298 132.971 315.14C132.997 319.157 132.061 319.341 125.648 316.584C92.994 302.548 62.1183 271.775 48.035 239.229C45.2001 232.68 45.4087 231.899 49.9979 231.899C53.5362 231.899 57.7751 236.843 63.6453 247.817ZM92.8871 235.521C92.8871 240.876 112.838 262.509 123.632 268.856C128.785 271.887 133.003 273.289 133.003 271.972C133.003 270.652 130.735 268.859 127.964 267.982C122.097 266.126 95.5615 238.89 95.5615 234.724C95.5615 233.12 101.047 231.936 108.265 231.984C119.061 232.056 122.305 233.407 129.885 241.001C138.392 249.528 138.747 250.68 137.686 266.238C137.073 275.205 135.851 283.26 134.969 284.137C131.508 287.589 102.921 265.218 92.8122 251.149C80.7213 234.316 80.058 231.899 87.5383 231.899C90.4801 231.899 92.8871 233.53 92.8871 235.521ZM316.923 239.229C304.883 267.057 279.265 295.215 253.58 308.862C236.518 317.925 231.95 318.983 231.966 313.863C231.971 312.032 239.82 306.487 249.405 301.548C269.744 291.065 294.26 266.044 304.281 245.543C308.333 237.256 312.623 232.067 315.474 232.003C319.507 231.912 319.691 232.834 316.923 239.229ZM208.247 254.659C197.576 259.276 172.052 259.764 160.009 255.579C155.302 253.945 150.723 253.332 149.833 254.22C148.942 255.107 146.583 277.735 144.591 304.507C142.599 331.277 137.37 396.96 132.971 450.47C128.571 503.98 124.974 549.859 124.977 552.425C124.98 556.704 129.136 557.087 175.124 557.05C202.705 557.026 226.729 556.085 228.51 554.955C231.046 553.348 230.904 533.17 227.855 462.369C225.71 412.577 223.156 346.339 222.18 315.177C221.204 284.012 219.76 259.159 218.971 259.945C216.644 262.264 215.708 269.682 215.952 283.876C216.077 291.206 216 301.402 215.78 306.533C215.561 311.664 215.542 318.261 215.738 321.193C217.513 347.867 219.003 373.661 220.121 397.16C221.817 432.766 221.814 432.691 221.014 435.834C220.645 437.286 221.231 443.873 222.319 450.47C223.408 457.067 223.229 465.319 221.924 468.806C220.386 472.911 220.8 479.969 223.103 488.797C225.384 497.561 225.823 504.838 224.325 509.124C223.041 512.797 222.852 518.195 223.9 521.119C227.401 530.872 228.829 545.511 226.625 549.062C224.884 551.868 222.188 551.455 213.149 546.998C202.737 541.865 201.347 541.753 195.495 545.572C191.805 547.982 184.383 549.504 177.788 549.2C159.8 548.377 159.014 548.443 147.105 551.828C130.125 556.656 126.943 554.401 129.157 539.117C131.743 521.266 134.784 516.38 137.028 526.474C140.053 540.068 140.705 541.097 146.308 541.097C151.381 541.097 151.207 540.34 143.778 530.121C134.658 517.571 131.618 505.318 134.206 491.561C135.412 485.154 137.175 482.459 139.56 483.37C142.379 484.45 142.278 482.6 139.066 474.451C134.864 463.792 136.338 438.254 140.991 441.119C142.254 441.895 142.088 438.211 140.625 432.931C139.162 427.651 138.785 421.341 139.788 418.908C140.788 416.477 141.943 404.485 142.355 392.261C142.764 380.037 144.356 368.786 145.891 367.256C147.592 365.56 148.092 357.484 147.172 346.542C146.233 335.395 146.712 327.963 148.439 326.9C150.122 325.863 150.656 319.037 149.795 309.564C148.937 300.146 149.469 293.261 151.133 292.238C152.817 291.198 153.309 284.159 152.4 274.155L150.911 257.773L158.672 259.692C162.94 260.75 166.732 262.424 167.101 263.416C169.524 269.951 218.583 259.751 218.583 252.711C218.583 250.059 219.11 249.96 208.247 254.659ZM157.072 270.631C157.072 273.118 159.696 279.806 162.902 285.491C168.273 295.018 169.094 295.503 173.335 291.678C179.593 286.032 183.174 291.881 177.371 298.272C173.413 302.631 173.469 303.358 178.082 307.519C182.819 311.789 183.305 311.704 187.108 305.92C190.056 301.439 190.331 299.059 188.141 297.02C186.499 295.487 181.816 290.279 177.737 285.446C171.404 277.94 169.709 277.167 166.109 280.144C162.418 283.199 162.012 282.682 162.828 275.989C163.37 271.521 162.37 267.883 160.415 267.227C158.578 266.612 157.072 268.142 157.072 270.631ZM205.021 269.882C202.885 271.716 201.641 272.923 202.259 272.572C202.877 272.217 204.997 273.265 206.971 274.896C209.782 277.22 210.56 276.639 210.56 272.206C210.56 265.607 210.191 265.449 205.021 269.882ZM179.16 270.972C176.665 271.977 176.86 273.326 179.957 276.41C182.22 278.668 184.354 280.07 184.701 279.529C185.046 278.988 186.943 276.447 188.911 273.88C192.029 269.824 191.842 269.242 187.485 269.426C184.734 269.541 180.987 270.239 179.16 270.972ZM191.914 281.123C189.392 284.151 189.28 286.134 191.489 288.786C193.126 290.753 194.177 292.901 193.821 293.557C193.468 294.213 195.321 292.422 197.945 289.575C200.566 286.731 202.296 283.159 201.788 281.64C200.25 277.042 195.519 276.791 191.914 281.123ZM205.211 292.939C205.211 296.377 191.984 315.206 188.48 316.755C187.368 317.248 188.512 321.116 191.021 325.349C195.252 332.487 195.928 332.737 200.298 328.795C204.414 325.085 204.561 323.653 201.467 317.539C196.429 307.578 199.159 301.202 205.102 309.052C209.56 314.945 209.613 314.863 208.723 303.643C207.902 293.283 205.211 285.084 205.211 292.939ZM155.957 300.256C155.099 302.481 154.398 306.192 154.398 308.497C154.398 312.101 155.149 312.01 159.747 307.866C166.072 302.161 166.459 299.629 161.306 297.657C159.22 296.86 156.813 298.03 155.957 300.256ZM165.055 314.604C163.459 317.576 160.993 319.295 159.576 318.424C158.158 317.549 159.124 321.062 161.715 326.231L166.433 335.624L171.346 329.062C174.081 325.407 177.638 323.299 179.369 324.304C181.08 325.295 180.374 323.709 177.799 320.775C175.223 317.843 173.119 314.036 173.119 312.32C173.119 307.324 168.219 308.713 165.055 314.604ZM176.815 336.752L171.206 345.281L176.962 349.607C182.452 353.734 182.923 353.574 187.239 346.076C191.505 338.668 191.497 337.93 187.095 333.22C182.559 328.369 182.265 328.47 176.815 336.752ZM203.334 338.575C201.673 342.962 201.357 345.908 202.636 345.121C203.912 344.335 206.883 347.027 209.234 351.1L213.51 358.51L212.245 346.859C210.605 331.738 207.142 328.518 203.334 338.575ZM154.414 343.946L154.43 355.845L158.516 348.035C162.186 341.024 162.183 339.806 158.5 336.136C154.812 332.46 154.401 333.249 154.414 343.946ZM162.592 355.527C159.26 361.733 160.731 373.17 164.86 373.17C166.005 373.17 169.027 370.873 171.576 368.066C175.94 363.257 175.948 362.556 171.682 356.071C169.193 352.281 166.895 349.181 166.577 349.181C166.259 349.181 164.467 352.036 162.592 355.527ZM191.593 355.261C187.699 360.675 187.705 361.773 191.655 368.223C195.923 375.194 196.035 375.215 202.125 370.3C208.183 365.414 208.204 365.201 203.494 357.257C197.822 347.686 197.132 347.568 191.593 355.261ZM150.747 378.701C148.295 390.92 152.293 393.436 158.233 383.411C160.961 378.811 161.889 375.849 160.295 376.83C158.704 377.811 156.302 376.654 154.957 374.261C152.989 370.753 152.17 371.616 150.747 378.701ZM174.862 377.433C170.056 384.011 170.056 384.299 174.862 387.927C181.372 392.842 182.145 392.757 187.828 386.498C192.5 381.353 192.5 380.98 187.828 375.836C181.711 369.1 180.877 369.204 174.862 377.433ZM198.734 386.287L185.771 399.404L190.933 405.945C195.947 412.3 196.26 412.351 201.989 407.729C209.02 402.054 209.22 400.383 203.612 394.207C201.261 391.618 200.232 388.06 201.32 386.303C202.711 384.062 204.767 385.008 208.209 389.467L213.117 395.827L213.176 384.499C213.208 378.267 212.889 373.17 212.464 373.17C212.042 373.17 205.864 379.072 198.734 386.287ZM160.688 395.321C156.511 400.108 155.906 402.752 157.947 407.307C161.263 414.715 162.763 414.638 170.262 406.681C176.298 400.279 176.307 400.153 171.204 394.694L166.048 389.177L160.688 395.321ZM173.889 412.977L167.976 420.414L174.092 426.139L180.208 431.867L187.381 423.842C191.326 419.43 193.235 415.818 191.62 415.818C190.005 415.818 186.686 413.505 184.244 410.679C179.901 405.652 179.679 405.7 173.889 412.977ZM207.712 413.374C203.957 419.345 204.109 420.288 209.784 426.235L215.909 432.656L215.641 426.235C215.494 422.706 214.564 416.917 213.569 413.374L211.761 406.932L207.712 413.374ZM147.645 416.365C146.714 418.782 146.348 423.367 146.832 426.552C147.65 431.937 148.161 431.737 154.09 423.7C157.599 418.948 158.971 415.981 157.137 417.111C155.23 418.287 152.841 417.623 151.568 415.568C149.771 412.671 149.006 412.825 147.645 416.365ZM190.633 431.668C186.124 436.633 186.159 437.188 191.438 444.579C195.594 450.395 196.199 453.056 193.883 455.364C191.564 457.675 189.403 457.115 185.116 453.101L179.422 447.77L164.02 463.752L148.616 479.735L153.638 486.097L158.658 492.46L167.5 484.586L176.339 476.715L170.516 470.536C166.403 466.172 165.614 463.792 167.834 462.425C169.728 461.257 177.005 466.436 186.164 475.47L201.352 490.45L206.222 484.78C210.977 479.244 210.924 478.943 203.992 472.119C197.049 465.285 196.806 465.245 193.019 470.317C190.082 474.249 188.395 474.758 186.047 472.418C183.699 470.077 185.774 466.239 194.61 456.569C201.026 449.55 207.506 442.969 209.014 441.948C210.702 440.805 209.287 437.468 205.342 433.285C197.643 425.116 196.677 425.009 190.633 431.668ZM155.973 434.213C151.978 438.616 151.798 440.269 154.754 445.584C156.652 449.004 157.952 452.704 157.639 453.802C156.61 457.427 158.773 455.902 165.775 448.068L172.688 440.336L166.671 434.698C160.731 429.138 160.589 429.13 155.973 434.213ZM143.7 459.567V472.514L149.418 465.266L155.139 458.019L149.418 452.32L143.7 446.621V459.567ZM209.571 452.752C204.743 458.069 204.754 458.379 209.958 464.973L215.296 471.738L216.417 465.767C217.032 462.486 216.858 456.987 216.032 453.549L214.526 447.295L209.571 452.752ZM173.26 491.636L167.12 498.148L174.801 504.812L182.479 511.473L189.031 505.033L195.583 498.596L189.234 491.857C181.42 483.57 180.869 483.562 173.26 491.636ZM143.7 498.481C143.7 504.817 144.013 509.5 144.398 508.89C144.781 508.279 147.198 505.275 149.769 502.213C154.237 496.892 154.208 496.437 149.071 491.804C143.773 487.025 143.7 487.115 143.7 498.481ZM211.247 493.014C208.774 496.959 209.185 498.796 213.384 502.583C218.425 507.131 218.583 507.024 218.583 499.019C218.583 489.013 215.39 486.401 211.247 493.014ZM156.056 508.031L148.354 514.781L153.301 524.92L158.249 535.057L167.021 528.081C177.558 519.701 177.756 518.08 169.08 511.281C165.39 508.386 163.055 504.916 163.889 503.567C166.315 499.659 164.307 500.803 156.056 508.031ZM197.857 508.757C190.537 518.654 190.459 520.077 196.942 525.61C201.713 529.678 202.419 529.571 207.717 523.95C213.042 518.302 213.09 509.111 207.795 509.111C206.591 509.111 205.214 507.2 204.738 504.865C204.093 501.704 202.339 502.695 197.857 508.757ZM178.213 530.246C170.26 538.999 170.543 540.119 180.524 539.335C196.733 538.064 198.704 536.39 191.064 530.398C183.172 524.211 183.688 524.216 178.213 530.246ZM212.175 530.835C208.244 535.412 208.019 536.875 210.959 538.735C216.815 542.432 221.26 541.436 221.217 536.432C221.135 527.204 217.321 524.845 212.175 530.835Z" fill="white"/>
</mask>
<g mask="url(#mask0_1_7)">
<path fill-rule="evenodd" clip-rule="evenodd" d="M135.624 20.6576L135.57 41.3153L116.234 50.362C88.4503 63.3617 62.2841 89.9634 48.4308 119.3L38.0622 141.256L20.0101 141.264L1.95796 141.272V167.535C1.95796 181.982 1.41506 201.472 0.754489 210.849C-0.406195 227.287 -0.366079 227.423 1.85633 214.573C3.12667 207.243 4.26863 188.179 4.397 172.207L4.63235 143.167L60.1339 145.059L115.635 146.952L128.331 132.294C137.402 121.821 141.026 115.35 141.026 109.621C141.026 105.213 140.101 101.033 138.972 100.338C137.841 99.6418 137.274 103.469 137.712 108.843C138.405 117.33 136.899 120.278 126.25 131.276C115.218 142.666 112.79 143.937 102.047 143.937H90.103L95.2539 133.875C101.13 122.397 123.859 100.183 132.538 97.4375C135.736 96.4272 138.333 93.5805 138.312 91.1149C138.287 88.4281 137.482 87.7537 136.306 89.4356C135.225 90.9789 129.943 94.9026 124.571 98.1571C112.445 105.495 96.7917 122.525 90.9562 134.725C88.2978 140.28 84.6018 143.937 81.6493 143.937C77.1724 143.937 77.3516 142.756 83.7433 130.18C94.7297 108.574 133.064 74.7327 136.643 83.4809C137.351 85.2135 138.025 67.7651 138.14 44.7085L138.352 2.78812L185.822 1.9938L233.292 1.20214L184.485 0.599738L135.677 0L135.624 20.6576ZM226.419 29.9869C226.318 43.5463 225.261 68.4368 224.071 85.2961L221.907 115.949L234.953 128.938C242.131 136.085 248.001 142.98 248.001 144.265C248.001 145.552 272.975 146.371 303.495 146.088C334.015 145.806 351.73 145.155 342.862 144.644L326.735 143.713L322.218 131.039C310.609 98.4583 279.559 64.7264 247.56 49.9249L228.941 41.3153L229.866 23.3231C230.377 13.4261 229.85 5.33101 228.7 5.33101C227.548 5.33101 226.523 16.4248 226.419 29.9869ZM145.864 12.6611C145.409 13.7593 145.388 37.6795 145.816 65.8139L146.597 116.968L157.383 113.175C174.664 107.097 189.483 106.108 202.826 110.141L215.152 113.868L216.853 88.2548C217.789 74.165 218.562 50.9458 218.57 36.6507L218.583 10.662H182.637C162.865 10.662 146.319 11.563 145.864 12.6611ZM177.911 16.3982C184.225 16.1396 191.649 17.1312 194.412 18.6025C197.37 20.1805 199.793 20.2765 200.314 18.8344C200.801 17.4884 204.66 15.5319 208.891 14.4843C216.567 12.5838 216.577 12.5998 214.794 22.95C213.809 28.6542 213.01 36.6587 213.018 40.7395C213.026 44.8204 211.921 51.0737 210.563 54.6375C209.161 58.3105 209.105 61.7437 210.429 62.5593C212.825 64.0334 213.954 109.286 211.595 109.286C210.881 109.286 207.046 107.705 203.072 105.772C193.495 101.111 171.172 101.966 160.744 107.396L152.381 111.749L152.352 75.1992C152.333 55.0959 153.419 37.2904 154.764 35.6298C156.348 33.6733 155.77 32.058 153.13 31.0478C150.665 30.1069 149.049 26.1566 149.049 21.0735C149.049 12.9277 149.325 12.7278 157.741 14.7669C162.52 15.9237 171.6 16.6594 177.911 16.3982ZM154.911 24.1894C155.438 25.7647 157.011 27.0549 158.41 27.0549C159.808 27.0549 161.381 25.7647 161.908 24.1894C162.434 22.6141 160.862 21.324 158.41 21.324C155.957 21.324 154.385 22.6141 154.911 24.1894ZM179.419 27.6093C179.786 33.5827 180.091 33.6813 185.547 29.6084C191.986 24.8025 191.312 21.324 183.942 21.324C180.46 21.324 179.144 23.1499 179.419 27.6093ZM203.05 24.1894C203.577 25.7647 205.15 27.0549 206.548 27.0549C207.947 27.0549 209.52 25.7647 210.047 24.1894C210.573 22.6141 209.001 21.324 206.548 21.324C204.096 21.324 202.524 22.6141 203.05 24.1894ZM166.767 31.4476C166.042 32.6178 166.524 35.3046 167.834 37.421C169.639 40.3317 170.976 40.5183 173.309 38.194C175.007 36.5014 175.587 33.8119 174.6 32.2179C172.487 28.8114 168.636 28.4329 166.767 31.4476ZM191.141 33.0522C186.924 36.2428 186.862 36.9732 190.556 40.0279C193.982 42.8586 195.308 42.5841 198.373 38.4072C204.465 30.1042 199.702 26.5751 191.141 33.0522ZM158.166 43.6503C155.901 49.5357 158.915 52.5397 163.001 48.4668C165.414 46.0626 165.422 44.5725 163.044 42.2029C160.664 39.8306 159.503 40.1745 158.166 43.6503ZM178.467 42.744C174.913 45.0203 174.91 45.6068 178.446 47.8671C181.693 49.9462 181.794 51.0604 179.002 53.8432C176.21 56.6259 175.148 56.5833 173.306 53.6139C170.586 49.2265 166.227 51.4922 162.073 59.4567C160.394 62.674 159.977 64.4145 161.145 63.3297C162.311 62.2422 164.734 62.5673 166.529 64.052C168.88 65.9952 172.554 64.0014 179.633 56.9458C187.731 48.8747 188.852 46.5264 185.974 43.6583C183.594 41.286 181.201 40.9954 178.467 42.744ZM202.229 43.3144C202.061 45.1483 202.136 48.7467 202.398 51.3109C202.919 56.426 198.536 57.6415 195.752 53.1501C194.642 51.3589 192.749 52.0306 190.582 54.9867C187.657 58.9742 188.272 60.8241 194.837 67.8077C199.058 72.2938 202.518 76.9371 202.524 78.1232C202.532 79.3094 203.74 79.5386 205.211 78.6323C206.682 77.7261 207.886 73.8184 207.886 69.9455C207.886 64.4705 207.172 63.6176 204.676 66.1045C197.488 73.2693 194.062 66.5203 200.991 58.8516C206.179 53.1101 209.316 39.9825 205.5 39.9825C203.871 39.9825 202.398 41.4832 202.229 43.3144ZM135.677 50.4873C135.677 54.1257 130.711 58.2626 118.962 64.4119C96.6071 76.1161 73.7946 99.8204 62.8323 122.733C55.9886 137.039 52.8248 141.005 48.158 141.122C42.9215 141.253 42.507 140.483 44.7134 134.699C58.0532 99.7271 85.1688 69.407 118.294 52.4198C134.567 44.0741 135.677 43.9515 135.677 50.4873ZM260.274 59.9738C277.577 70.0787 299.906 94.1935 310.168 113.865C323.323 139.081 324.574 143.937 317.929 143.937C314.214 143.937 312.088 141.565 310.879 136.071C309.186 128.395 293.265 102.643 283.592 91.9385C273.964 81.2845 253.995 66.6216 241.77 61.2319C233.006 57.3696 229.281 54.163 229.281 50.4846C229.281 45.4628 229.701 45.4175 239.31 49.4158C244.827 51.7108 254.259 56.4633 260.274 59.9738ZM178.184 67.4559C174.908 69.9001 174.568 71.7367 176.753 75.1858C178.328 77.6728 178.689 80.6315 177.558 81.759C176.427 82.8865 174.365 82.0442 172.974 79.8878C170.754 76.4466 170.123 76.4546 167.81 79.9651C160.688 90.779 169.147 92.9274 179.494 82.9291C184.217 78.3684 188.927 74.6341 189.962 74.6341C193.233 74.6341 191.986 82.1321 188.496 83.4356C186.186 84.2992 186.803 85.9625 190.502 88.8252C195.174 92.4423 196.348 92.4796 199.796 89.1024C203.262 85.7092 202.451 83.9687 193.11 74.7434C184.241 65.9899 181.768 64.7824 178.184 67.4559ZM157.072 73.8717C157.072 80.5382 157.412 80.7674 161.399 76.7931C163.78 74.4208 164.914 71.1663 163.916 69.559C160.635 64.2653 157.072 66.5123 157.072 73.8717ZM242.797 87.4898C262.775 100.13 288.117 129.751 288.117 140.461C288.117 148.301 280.8 142.788 270.699 127.339C263.117 115.744 255.126 107.753 243.474 100.111C234.081 93.9536 226.898 87.2846 226.794 84.6297C226.539 78.2911 228.938 78.7176 242.797 87.4898ZM158.813 91.8692C156.775 97.1656 158.008 99.7138 161.894 98.2344C163.261 97.7147 163.547 94.9799 162.531 92.1544C160.774 87.2739 160.589 87.2606 158.813 91.8692ZM178.467 92.9807C178.467 94.2762 181.487 95.9128 185.177 96.6138C190.606 97.6507 191.31 97.2002 188.86 94.2602C185.482 90.2006 178.467 89.3397 178.467 92.9807ZM202.919 93.0447C200.229 94.7106 200.103 95.7902 202.43 97.2242C206.099 99.4846 208.854 97.4828 207.495 93.5458C206.939 91.9305 205.051 91.7253 202.919 93.0447ZM239.377 99.5779C251.141 106.98 267.351 124.268 273.325 135.781L277.556 143.937H265.337C254.083 143.937 252.008 142.804 239.09 129.618C226.034 116.291 225.135 114.537 226.114 104.296C226.695 98.2451 227.668 93.2926 228.278 93.2926C228.888 93.2926 233.883 96.1207 239.377 99.5779ZM171.316 114.878C136.603 121.278 114.362 148.354 114.309 184.282C114.215 246.996 190.208 277.202 234.258 231.96C246.894 218.984 253.35 201.853 253.35 181.302C253.35 139.566 213.301 107.137 171.316 114.878ZM212.007 123.591C233.621 133.624 247.405 153.032 249.857 176.891C256.057 237.222 184.787 273.67 138.983 233.589C109.522 207.808 110.222 158.398 140.408 133.139C160.846 116.035 187.943 112.423 212.007 123.591ZM158.41 127.734C133.794 139.243 123.832 155.5 123.723 184.346C123.651 202.831 124.407 205.851 131.741 216.258C148.982 240.73 174.223 250.115 202.558 242.59C225.702 236.443 245.298 209.543 245.298 183.92C245.298 160.855 230.08 137.015 209.373 127.64C195.156 121.206 172.282 121.246 158.41 127.734ZM195.444 131.02L211.082 130.271L223.972 144.246C238.382 159.866 241.307 168.433 235.953 179.3C233.956 183.357 233.316 186.063 234.531 185.314C235.747 184.562 237.472 185.842 238.36 188.152C241.671 196.746 239.759 204.796 232.017 214.872C217.476 233.797 215.861 234.801 199.937 234.799C191.807 234.796 179.099 235.441 171.696 236.23C159.637 237.518 157.484 236.913 150.969 230.419C146.971 226.434 143.7 221.469 143.7 219.384C143.7 217.297 142.55 216.3 141.144 217.167C139.737 218.033 136.811 216.004 134.64 212.659C129.408 204.596 129.449 158.296 134.693 150.708C140.686 142.039 148.603 139.235 160.715 141.496C168.647 142.978 172.811 142.559 175.424 140.024C178.483 137.052 178.179 136.207 173.517 134.733C170.468 133.768 165.598 134.245 162.699 135.794C154.719 140.048 150.314 139.512 154.264 134.768C158.089 130.175 167.085 128.163 174.456 130.252C177.398 131.087 186.841 131.433 195.444 131.02ZM194.744 139.979C197.587 142.81 201.416 143.495 207.567 142.269C218.466 140.096 213.558 136.042 199.959 135.981C191.682 135.946 191.125 136.372 194.744 139.979ZM180.005 146.381C176.368 150.388 175.991 152.651 178.253 156.868C179.842 159.826 181.142 165.922 181.142 170.416C181.142 177.384 180.144 178.589 174.37 178.589C170.645 178.589 163.496 176.88 158.482 174.793C150.528 171.48 148.95 171.498 146.086 174.937C143.42 178.138 143.893 179.967 148.6 184.658C151.79 187.835 154.398 188.968 154.398 187.177C154.398 185.045 159.017 183.92 167.77 183.92C181.078 183.92 181.142 183.962 181.126 192.583C181.115 197.346 179.457 204.401 177.438 208.258C174.218 214.408 174.317 215.743 178.237 219.091C185.333 225.144 190.251 227.807 188.183 224.478C187.191 222.876 188.454 220.408 190.989 218.992C194.816 216.857 195.014 215.722 192.158 212.289C190.264 210.015 188.515 202.402 188.272 195.371C187.849 183.219 188.199 182.544 195.332 181.729C199.459 181.257 207.337 183.211 212.839 186.068L222.843 191.266L223.263 185.716C223.991 176.07 219.442 173.554 204.12 175.132C190.951 176.486 189.85 176.152 188.323 170.339C187.421 166.903 188.413 160.637 190.526 156.417C193.821 149.836 193.834 148.21 190.62 145.006C185.835 140.237 185.549 140.275 180.005 146.381ZM360.326 187.529V231.123L321.488 229.809C288.259 228.684 282.867 229.055 284.143 232.368C287.558 241.233 243.979 285.209 231.781 285.209C228.235 285.209 228.248 286.064 234.862 466.463C236.662 515.575 238.852 556.602 239.727 557.637C241.548 559.79 241.358 553.028 235.878 421.429C233.659 368.071 232.166 324.136 232.568 323.792C232.966 323.448 239.911 319.882 248.001 315.867C277.179 301.388 302.069 276.914 315.268 249.723L324.085 231.555L343.541 233.373L363 235.191V189.563C363 164.47 362.398 143.937 361.663 143.937C360.927 143.937 360.326 163.553 360.326 187.529ZM151.724 153.248V159.896L158.41 154.101C162.087 150.915 165.095 147.922 165.095 147.456C165.095 146.986 162.087 146.603 158.41 146.603C153.066 146.603 151.724 147.935 151.724 153.248ZM212.122 155.266C214.909 158.563 217.503 161.764 217.885 162.374C218.27 162.985 218.583 160.285 218.583 156.377C218.583 150.875 217.281 149.268 212.82 149.268C207.126 149.268 207.118 149.34 212.122 155.266ZM9.98112 187.38V223.654L63.4688 223.564C92.8871 223.513 116.957 222.932 116.957 222.268C116.957 221.607 115.076 216.607 112.779 211.156C107.901 199.588 107.053 172.474 111.241 161.929C113.734 155.647 113.491 154.596 109.535 154.573C106.997 154.557 83.5615 153.77 57.4515 152.827L9.98112 151.107V187.38ZM260.935 154.087C254.278 154.855 253.973 155.465 256.255 163.398C259.902 176.075 259.212 195.125 254.637 208.053C251.564 216.729 251.347 220.003 253.741 221.477C255.482 222.548 275.061 223.558 297.25 223.718C319.44 223.878 341.506 224.721 346.285 225.587L354.977 227.162V189.445V151.731L311.518 152.499C287.617 152.92 264.853 153.637 260.935 154.087ZM30.9242 160.322C31.411 161.548 33.9864 161.391 36.6501 159.97C39.3138 158.549 56.7427 157.499 75.3779 157.641C105.601 157.867 109.07 158.366 107.484 162.244C106.505 164.637 104.799 173.791 103.694 182.587C102.039 195.741 102.571 200.235 106.687 207.909C111.15 216.231 111.231 217.337 107.425 218.142C101.119 219.475 90.2127 216.223 90.2127 213.011C90.2127 211.428 92.534 210.951 95.5615 211.907C99.1719 213.051 100.91 212.387 100.91 209.866C100.91 202.866 97.5833 202.802 88.5947 209.636C83.6551 213.392 76.8836 216.41 73.5459 216.343C70.211 216.279 59.6578 215.799 50.0969 215.277C39.8807 214.72 29.1886 215.743 24.1634 217.758C13.4658 222.052 10.8637 218.702 16.3622 207.717C18.9269 202.594 19.6651 197.442 18.3626 193.758C15.9263 186.865 17.333 178.589 20.9434 178.589C22.3448 178.589 21.6548 175.049 19.411 170.725C13.0192 158.408 13.982 154.167 22.6845 156.294C26.7281 157.281 30.4375 159.093 30.9242 160.322ZM140.521 156.108C139.734 157.478 138.293 161.924 137.317 165.992C135.661 172.89 135.907 173.159 140.959 170.016C146.886 166.327 146.907 166.242 143.973 158.773C142.861 155.94 141.307 154.74 140.521 156.108ZM165.561 159.943C158.725 165.621 159.83 170.592 167.928 170.592C171.912 170.592 173.119 168.734 173.119 162.596C173.119 153.226 173.49 153.357 165.561 159.943ZM197.292 159.736C193.76 166.317 195.637 170.608 202.026 170.552C211.747 170.464 213.571 166.506 206.805 160.17L200.32 154.098L197.292 159.736ZM223.154 159.941C222.346 163.017 223.876 167.817 226.764 171.269L231.776 177.256L231.867 170.144C232.038 156.318 225.97 149.21 223.154 159.941ZM277.077 161.087C281.158 163.19 286.085 166.818 288.024 169.147C292.23 174.199 289.42 178.287 284.862 173.745C280.602 169.499 278.305 169.777 276.382 174.774C275.355 177.443 277.671 181.387 282.782 185.674C292.073 193.465 293.249 198.385 285.216 195.842C281.367 194.624 277.636 195.952 273.181 200.126C266.385 206.489 264.369 214.504 270.065 212.521C271.905 211.878 273.055 209.381 272.622 206.966C271.774 202.237 276.088 200.939 278.693 205.14C279.634 206.659 282.145 206.174 284.868 203.948C287.39 201.885 292.404 197.89 296.007 195.067C301.952 190.413 302.171 189.549 298.376 185.767C295.458 182.859 293.343 182.443 291.388 184.391C289.845 185.929 287.259 186.372 285.638 185.372C283.838 184.264 286.965 180.004 293.683 174.409C304.225 165.632 304.07 164.608 292.129 164.139C283.17 163.787 283.536 158.653 292.583 157.779C298.93 157.163 303.3 158.952 309.964 164.888C314.861 169.249 317.995 173.687 316.928 174.75C315.864 175.814 313.454 175.411 311.574 173.857C309.127 171.832 306.694 172.104 302.976 174.812C297.897 178.511 297.895 178.663 302.856 182.28C307.357 185.559 309.05 185.066 318.076 177.834C323.662 173.362 328.233 168.777 328.233 167.649C328.233 166.522 324.414 165.224 319.747 164.763C315.08 164.304 310.767 162.43 310.165 160.597C308.648 155.993 323.141 156.249 329.576 160.938C333.857 164.059 335.17 164.059 338.302 160.938C340.329 158.917 344.44 157.265 347.438 157.265C352.262 157.265 352.688 158.411 351.142 167.26C350.184 172.759 349.417 180.742 349.438 185.007C349.484 193.798 342.287 210.575 338.468 210.575C337.077 210.575 336.684 211.774 337.593 213.24C338.503 214.706 341.062 215.906 343.279 215.906C346.098 215.906 346.801 214.298 345.617 210.575C343.621 204.305 348.299 203.277 350.679 209.461C354.867 220.336 346.999 225.398 336.347 218.683C333.876 217.127 331.194 217.228 329.1 218.96C327.078 220.632 322.331 220.877 316.977 219.581C312.136 218.414 303.615 217.814 298.042 218.254C292.468 218.691 286.098 217.553 283.886 215.724C280.843 213.206 279.115 213.15 276.772 215.485C273.705 218.542 256.025 219.925 256.025 217.105C256.025 212.755 264.885 199.643 271.138 194.742C276.505 190.533 277.564 188.328 275.302 186.073C273.042 183.821 271.581 184.858 269.562 190.149C265.676 200.339 263.08 198.894 264.925 187.566C265.882 181.673 264.973 174.249 262.598 168.582C260.453 163.467 258.699 158.827 258.699 158.272C258.699 155.825 270.322 157.606 277.077 161.087ZM46.3367 162.244C40.0332 163.611 39.2737 164.494 42.3251 166.924C45.2055 169.219 47.2888 168.753 51.2335 164.925C54.0657 162.177 55.8709 160.071 55.2451 160.245C54.6193 160.418 50.6104 161.319 46.3367 162.244ZM22.0426 165.304C22.9679 166.794 24.8427 167.324 26.212 166.479C29.9213 164.195 29.2313 162.596 24.5325 162.596C22.2405 162.596 21.1199 163.814 22.0426 165.304ZM63.6908 163.35C64.3059 163.766 66.7717 165.594 69.1733 167.415C72.7356 170.115 73.8321 169.976 75.1078 166.663C76.2658 163.651 74.843 162.596 69.6253 162.596C65.7501 162.596 63.0784 162.934 63.6908 163.35ZM92.8871 163.603C92.8871 164.155 94.6923 166.101 96.8987 167.927C100.185 170.645 100.91 170.462 100.91 166.919C100.91 164.541 99.105 162.596 96.8987 162.596C94.6923 162.596 92.8871 163.049 92.8871 163.603ZM54.7717 169.926C51.1961 173.921 51.1346 175.084 54.3518 178.021C57.2001 180.625 59.4466 180.734 63.6828 178.474C69.0048 175.635 69.0476 175.262 64.6135 170.379C59.0106 164.208 59.8557 164.248 54.7717 169.926ZM82.7859 169.417C77.3596 172.154 77.1537 172.863 80.8951 175.958C83.6925 178.271 84.198 180.319 82.4168 182.094C80.633 183.872 78.4855 183.72 75.9716 181.641C73.0485 179.223 71.4679 179.402 68.9433 182.438C65.3302 186.774 67.2718 191.916 72.5216 191.916C74.383 191.916 78.7342 188.918 82.1895 185.252C85.6448 181.587 90.0656 178.589 92.0152 178.589C93.9649 178.589 95.5615 177.389 95.5615 175.923C95.5615 174.457 94.4462 173.258 93.0823 173.258C91.721 173.258 90.2154 171.704 89.7393 169.801C89.0627 167.095 87.5543 167.012 82.7859 169.417ZM268.581 170.744C267.401 175.243 267.824 175.665 270.945 173.084C275.2 169.563 275.989 165.261 272.384 165.261C271.084 165.261 269.372 167.729 268.581 170.744ZM340.268 170.592C342.033 176.134 337.885 178.042 334.82 173.098C333.71 171.307 331.814 171.984 329.64 174.948C326.824 178.786 326.893 180.297 330.025 183.419C332.122 185.511 334.157 186.777 334.55 186.236C334.94 185.695 337.893 181.793 341.107 177.562C348.031 168.457 348.462 165.261 342.763 165.261C339.786 165.261 339.064 166.81 340.268 170.592ZM32.0502 169.838C29.9668 170.584 29.325 173.466 30.3412 177.507C31.6035 182.515 31.074 183.637 28.0038 182.462C24.9256 181.286 24.3426 182.547 25.407 188.097C26.6532 194.59 27.0223 194.79 29.4426 190.25C30.9082 187.502 34.3902 182.734 37.1796 179.655C41.2153 175.204 41.5496 173.503 38.819 171.349C36.9309 169.862 33.8848 169.179 32.0502 169.838ZM42.031 182.638C39.1854 186.055 39.4662 187.401 43.6837 190.581C46.4758 192.689 49.5326 194.451 50.4793 194.496C52.1856 194.582 56.2426 186.164 54.8413 185.45C54.4374 185.244 52.1615 183.603 49.784 181.801C46.2912 179.154 44.7963 179.316 42.031 182.638ZM92.1703 184.599C91.4616 186.441 92.5367 189.485 94.5586 191.37C97.6154 194.214 98.2358 193.649 98.2358 188.022C98.2358 180.966 94.4034 178.805 92.1703 184.599ZM137.501 188.83C136.648 193.073 136.875 199.99 138.004 204.196L140.058 211.849L143.069 203.237C145.401 196.568 145.289 193.102 142.564 187.87L139.047 181.116L137.501 188.83ZM315.155 187.563C310.566 193.076 318.589 199.241 324.254 194.555C327.332 192.009 327.572 190.336 325.264 187.563C323.596 185.559 321.32 183.92 320.21 183.92C319.1 183.92 316.824 185.559 315.155 187.563ZM340.88 185.53C339.808 186.599 338.931 189.312 338.931 191.562C338.931 194.56 339.722 194.859 341.907 192.681C343.541 191.053 344.421 188.336 343.857 186.652C343.292 184.965 341.953 184.461 340.88 185.53ZM158.383 191.962C155.928 195.92 167.984 208.762 171.169 205.588C172.49 204.271 173.169 200.355 172.677 196.887C171.709 190.072 161.694 186.62 158.383 191.962ZM193.144 191.969C192.216 193.462 192.896 199.022 194.65 204.319L197.841 213.955L206.008 205.241C213.815 196.917 213.957 196.37 209.183 192.892C203.283 188.592 195.517 188.145 193.144 191.969ZM228.612 190.773C227.51 191.89 226.606 197.042 226.606 202.224C226.606 208.927 227.433 210.817 229.476 208.781C231.054 207.208 231.955 202.056 231.482 197.332C231.006 192.607 229.714 189.656 228.612 190.773ZM31.5741 195.677C29.3972 198.292 29.3089 199.971 31.2906 201.192C35.2434 203.628 32.0341 207.992 27.5492 206.278C25.538 205.51 23.099 206.161 22.1282 207.728C18.2289 214.019 31.0098 210.068 44.3978 200.846C45.5157 200.075 37.7546 191.916 35.9066 191.916C35.246 191.916 33.2964 193.609 31.5741 195.677ZM55.6436 195.677C53.4666 198.292 53.3784 199.971 55.3601 201.192C59.821 203.94 55.5553 208.304 50.0969 206.576C47.4038 205.724 44.4245 206.275 43.4778 207.8C40.3969 212.768 53.0254 210.756 61.1608 204.982C67.4456 200.523 68.4084 198.636 65.9266 195.653C61.9952 190.935 59.5883 190.941 55.6436 195.677ZM80.7801 194.699C79.8307 196.229 80.4646 199.174 82.1869 201.243C84.6473 204.199 86.3883 204.34 90.3036 201.901C93.9969 199.604 94.5479 197.908 92.4244 195.357C88.9664 191.207 83.1496 190.877 80.7801 194.699ZM302.118 197.687C297.79 202 306.648 208.72 311.435 204.759C314 202.637 313.898 201.237 310.967 198.316C306.429 193.793 306.052 193.766 302.118 197.687ZM327.69 199.734C323.403 203.863 323.416 204.292 327.885 207.075C331.68 209.437 333.269 209.021 335.783 205.009C339.719 198.727 339.706 198.103 335.588 196.583C333.75 195.906 330.196 197.325 327.69 199.734ZM68.8176 206.576C66.0603 209.89 66.3465 210.567 70.4971 210.535C73.2491 210.511 77.1082 209.479 79.0712 208.24C81.9167 206.441 81.7376 205.641 78.1833 204.281C72.3398 202.048 72.6527 201.97 68.8176 206.576ZM150.143 206.79C150.924 212.086 156.805 215.842 161.509 214.043C164.087 213.056 163.288 211.257 158.653 207.624C150.82 201.483 149.341 201.336 150.143 206.79ZM289.623 206.784C285.216 209.996 285.127 210.623 288.887 212.059C291.233 212.958 294.948 213.291 297.141 212.8C300.363 212.078 300.505 211.065 297.876 207.523C295.079 203.751 293.926 203.647 289.623 206.784ZM210.56 211.907L204.278 218.571H212.322C222.076 218.571 223.758 217.153 221.993 210.42C220.207 203.615 218.118 203.887 210.56 211.907ZM313.711 210.271C312.906 211.572 314.888 213.323 318.118 214.165C324.858 215.922 326.856 214.824 324.331 210.753C322.194 207.304 315.733 207.014 313.711 210.271ZM161.595 220.733C153.705 221.666 153.146 225.691 160.282 230.18C162.977 231.872 167.452 231.941 172.621 230.369L180.73 227.9L174.918 223.873C171.723 221.658 165.727 220.245 161.595 220.733ZM196.001 225.456C191.243 228.921 191.794 229.231 202.695 229.193C209.226 229.169 216.377 227.935 218.583 226.445C221.557 224.441 220.683 224.182 215.205 225.451C211.14 226.392 206.324 225.928 204.5 224.419C202.181 222.5 199.627 222.812 196.001 225.456ZM236.338 236.851C227.229 246.146 226.363 248.262 227.304 258.842L228.347 270.549L228.813 259.487C229.184 250.677 231.241 246.471 238.909 238.829C247.044 230.721 250.358 229.233 260.304 229.233C266.776 229.233 272.071 229.892 272.071 230.699C272.071 239.794 244.691 267.936 232.993 270.863C229.479 271.74 226.606 274.206 226.606 276.338C226.606 282.852 257.517 259.268 269.212 243.83C279.514 230.227 279.661 229.742 273.954 228.215C270.712 227.349 263.189 226.624 257.236 226.605C248.175 226.573 244.771 228.242 236.338 236.851ZM19.5661 231.208L41.1858 232.101L48.9844 248.659C59.5295 271.05 90.6326 302.151 114.94 314.609C124.865 319.698 132.984 325.058 132.984 326.524C132.984 327.99 128.777 379.568 123.634 441.141C118.492 502.714 114.285 556.445 114.285 560.547L114.282 568L172.45 567.47C204.444 567.179 233.627 566.145 237.304 565.175C240.981 564.202 215.409 563.935 180.473 564.58L116.957 565.753L116.959 559.422C116.962 551.94 135.086 330.778 136.809 317.195C137.461 312.064 138.836 294.535 139.868 278.241L141.74 248.617L131.355 238.997L120.968 229.377L59.4573 229.849C25.6263 230.108 7.6758 230.718 19.5661 231.208ZM63.6453 247.817C74.3081 267.758 97.5565 291.164 117.593 302.132C127.05 307.306 132.952 312.298 132.971 315.14C132.997 319.157 132.061 319.341 125.648 316.584C92.994 302.548 62.1183 271.775 48.035 239.229C45.2001 232.68 45.4087 231.899 49.9979 231.899C53.5362 231.899 57.7751 236.843 63.6453 247.817ZM92.8871 235.521C92.8871 240.876 112.838 262.509 123.632 268.856C128.785 271.887 133.003 273.289 133.003 271.972C133.003 270.652 130.735 268.859 127.964 267.982C122.097 266.126 95.5615 238.89 95.5615 234.724C95.5615 233.12 101.047 231.936 108.265 231.984C119.061 232.056 122.305 233.407 129.885 241.001C138.392 249.528 138.747 250.68 137.686 266.238C137.073 275.205 135.851 283.26 134.969 284.137C131.508 287.589 102.921 265.218 92.8122 251.149C80.7213 234.316 80.058 231.899 87.5383 231.899C90.4801 231.899 92.8871 233.53 92.8871 235.521ZM316.923 239.229C304.883 267.057 279.265 295.215 253.58 308.862C236.518 317.925 231.95 318.983 231.966 313.863C231.971 312.032 239.82 306.487 249.405 301.548C269.744 291.065 294.26 266.044 304.281 245.543C308.333 237.256 312.623 232.067 315.474 232.003C319.507 231.912 319.691 232.834 316.923 239.229ZM208.247 254.659C197.576 259.276 172.052 259.764 160.009 255.579C155.302 253.945 150.723 253.332 149.833 254.22C148.942 255.107 146.583 277.735 144.591 304.507C142.599 331.277 137.37 396.96 132.971 450.47C128.571 503.98 124.974 549.859 124.977 552.425C124.98 556.704 129.136 557.087 175.124 557.05C202.705 557.026 226.729 556.085 228.51 554.955C231.046 553.348 230.904 533.17 227.855 462.369C225.71 412.577 223.156 346.339 222.18 315.177C221.204 284.012 219.76 259.159 218.971 259.945C216.644 262.264 215.708 269.682 215.952 283.876C216.077 291.206 216 301.402 215.78 306.533C215.561 311.664 215.542 318.261 215.738 321.193C217.513 347.867 219.003 373.661 220.121 397.16C221.817 432.766 221.814 432.691 221.014 435.834C220.645 437.286 221.231 443.873 222.319 450.47C223.408 457.067 223.229 465.319 221.924 468.806C220.386 472.911 220.8 479.969 223.103 488.797C225.384 497.561 225.823 504.838 224.325 509.124C223.041 512.797 222.852 518.195 223.9 521.119C227.401 530.872 228.829 545.511 226.625 549.062C224.884 551.868 222.188 551.455 213.149 546.998C202.737 541.865 201.347 541.753 195.495 545.572C191.805 547.982 184.383 549.504 177.788 549.2C159.8 548.377 159.014 548.443 147.105 551.828C130.125 556.656 126.943 554.401 129.157 539.117C131.743 521.266 134.784 516.38 137.028 526.474C140.053 540.068 140.705 541.097 146.308 541.097C151.381 541.097 151.207 540.34 143.778 530.121C134.658 517.571 131.618 505.318 134.206 491.561C135.412 485.154 137.175 482.459 139.56 483.37C142.379 484.45 142.278 482.6 139.066 474.451C134.864 463.792 136.338 438.254 140.991 441.119C142.254 441.895 142.088 438.211 140.625 432.931C139.162 427.651 138.785 421.341 139.788 418.908C140.788 416.477 141.943 404.485 142.355 392.261C142.764 380.037 144.356 368.786 145.891 367.256C147.592 365.56 148.092 357.484 147.172 346.542C146.233 335.395 146.712 327.963 148.439 326.9C150.122 325.863 150.656 319.037 149.795 309.564C148.937 300.146 149.469 293.261 151.133 292.238C152.817 291.198 153.309 284.159 152.4 274.155L150.911 257.773L158.672 259.692C162.94 260.75 166.732 262.424 167.101 263.416C169.524 269.951 218.583 259.751 218.583 252.711C218.583 250.059 219.11 249.96 208.247 254.659ZM157.072 270.631C157.072 273.118 159.696 279.806 162.902 285.491C168.273 295.018 169.094 295.503 173.335 291.678C179.593 286.032 183.174 291.881 177.371 298.272C173.413 302.631 173.469 303.358 178.082 307.519C182.819 311.789 183.305 311.704 187.108 305.92C190.056 301.439 190.331 299.059 188.141 297.02C186.499 295.487 181.816 290.279 177.737 285.446C171.404 277.94 169.709 277.167 166.109 280.144C162.418 283.199 162.012 282.682 162.828 275.989C163.37 271.521 162.37 267.883 160.415 267.227C158.578 266.612 157.072 268.142 157.072 270.631ZM205.021 269.882C202.885 271.716 201.641 272.923 202.259 272.572C202.877 272.217 204.997 273.265 206.971 274.896C209.782 277.22 210.56 276.639 210.56 272.206C210.56 265.607 210.191 265.449 205.021 269.882ZM179.16 270.972C176.665 271.977 176.86 273.326 179.957 276.41C182.22 278.668 184.354 280.07 184.701 279.529C185.046 278.988 186.943 276.447 188.911 273.88C192.029 269.824 191.842 269.242 187.485 269.426C184.734 269.541 180.987 270.239 179.16 270.972ZM191.914 281.123C189.392 284.151 189.28 286.134 191.489 288.786C193.126 290.753 194.177 292.901 193.821 293.557C193.468 294.213 195.321 292.422 197.945 289.575C200.566 286.731 202.296 283.159 201.788 281.64C200.25 277.042 195.519 276.791 191.914 281.123ZM205.211 292.939C205.211 296.377 191.984 315.206 188.48 316.755C187.368 317.248 188.512 321.116 191.021 325.349C195.252 332.487 195.928 332.737 200.298 328.795C204.414 325.085 204.561 323.653 201.467 317.539C196.429 307.578 199.159 301.202 205.102 309.052C209.56 314.945 209.613 314.863 208.723 303.643C207.902 293.283 205.211 285.084 205.211 292.939ZM155.957 300.256C155.099 302.481 154.398 306.192 154.398 308.497C154.398 312.101 155.149 312.01 159.747 307.866C166.072 302.161 166.459 299.629 161.306 297.657C159.22 296.86 156.813 298.03 155.957 300.256ZM165.055 314.604C163.459 317.576 160.993 319.295 159.576 318.424C158.158 317.549 159.124 321.062 161.715 326.231L166.433 335.624L171.346 329.062C174.081 325.407 177.638 323.299 179.369 324.304C181.08 325.295 180.374 323.709 177.799 320.775C175.223 317.843 173.119 314.036 173.119 312.32C173.119 307.324 168.219 308.713 165.055 314.604ZM176.815 336.752L171.206 345.281L176.962 349.607C182.452 353.734 182.923 353.574 187.239 346.076C191.505 338.668 191.497 337.93 187.095 333.22C182.559 328.369 182.265 328.47 176.815 336.752ZM203.334 338.575C201.673 342.962 201.357 345.908 202.636 345.121C203.912 344.335 206.883 347.027 209.234 351.1L213.51 358.51L212.245 346.859C210.605 331.738 207.142 328.518 203.334 338.575ZM154.414 343.946L154.43 355.845L158.516 348.035C162.186 341.024 162.183 339.806 158.5 336.136C154.812 332.46 154.401 333.249 154.414 343.946ZM162.592 355.527C159.26 361.733 160.731 373.17 164.86 373.17C166.005 373.17 169.027 370.873 171.576 368.066C175.94 363.257 175.948 362.556 171.682 356.071C169.193 352.281 166.895 349.181 166.577 349.181C166.259 349.181 164.467 352.036 162.592 355.527ZM191.593 355.261C187.699 360.675 187.705 361.773 191.655 368.223C195.923 375.194 196.035 375.215 202.125 370.3C208.183 365.414 208.204 365.201 203.494 357.257C197.822 347.686 197.132 347.568 191.593 355.261ZM150.747 378.701C148.295 390.92 152.293 393.436 158.233 383.411C160.961 378.811 161.889 375.849 160.295 376.83C158.704 377.811 156.302 376.654 154.957 374.261C152.989 370.753 152.17 371.616 150.747 378.701ZM174.862 377.433C170.056 384.011 170.056 384.299 174.862 387.927C181.372 392.842 182.145 392.757 187.828 386.498C192.5 381.353 192.5 380.98 187.828 375.836C181.711 369.1 180.877 369.204 174.862 377.433ZM198.734 386.287L185.771 399.404L190.933 405.945C195.947 412.3 196.26 412.351 201.989 407.729C209.02 402.054 209.22 400.383 203.612 394.207C201.261 391.618 200.232 388.06 201.32 386.303C202.711 384.062 204.767 385.008 208.209 389.467L213.117 395.827L213.176 384.499C213.208 378.267 212.889 373.17 212.464 373.17C212.042 373.17 205.864 379.072 198.734 386.287ZM160.688 395.321C156.511 400.108 155.906 402.752 157.947 407.307C161.263 414.715 162.763 414.638 170.262 406.681C176.298 400.279 176.307 400.153 171.204 394.694L166.048 389.177L160.688 395.321ZM173.889 412.977L167.976 420.414L174.092 426.139L180.208 431.867L187.381 423.842C191.326 419.43 193.235 415.818 191.62 415.818C190.005 415.818 186.686 413.505 184.244 410.679C179.901 405.652 179.679 405.7 173.889 412.977ZM207.712 413.374C203.957 419.345 204.109 420.288 209.784 426.235L215.909 432.656L215.641 426.235C215.494 422.706 214.564 416.917 213.569 413.374L211.761 406.932L207.712 413.374ZM147.645 416.365C146.714 418.782 146.348 423.367 146.832 426.552C147.65 431.937 148.161 431.737 154.09 423.7C157.599 418.948 158.971 415.981 157.137 417.111C155.23 418.287 152.841 417.623 151.568 415.568C149.771 412.671 149.006 412.825 147.645 416.365ZM190.633 431.668C186.124 436.633 186.159 437.188 191.438 444.579C195.594 450.395 196.199 453.056 193.883 455.364C191.564 457.675 189.403 457.115 185.116 453.101L179.422 447.77L164.02 463.752L148.616 479.735L153.638 486.097L158.658 492.46L167.5 484.586L176.339 476.715L170.516 470.536C166.403 466.172 165.614 463.792 167.834 462.425C169.728 461.257 177.005 466.436 186.164 475.47L201.352 490.45L206.222 484.78C210.977 479.244 210.924 478.943 203.992 472.119C197.049 465.285 196.806 465.245 193.019 470.317C190.082 474.249 188.395 474.758 186.047 472.418C183.699 470.077 185.774 466.239 194.61 456.569C201.026 449.55 207.506 442.969 209.014 441.948C210.702 440.805 209.287 437.468 205.342 433.285C197.643 425.116 196.677 425.009 190.633 431.668ZM155.973 434.213C151.978 438.616 151.798 440.269 154.754 445.584C156.652 449.004 157.952 452.704 157.639 453.802C156.61 457.427 158.773 455.902 165.775 448.068L172.688 440.336L166.671 434.698C160.731 429.138 160.589 429.13 155.973 434.213ZM143.7 459.567V472.514L149.418 465.266L155.139 458.019L149.418 452.32L143.7 446.621V459.567ZM209.571 452.752C204.743 458.069 204.754 458.379 209.958 464.973L215.296 471.738L216.417 465.767C217.032 462.486 216.858 456.987 216.032 453.549L214.526 447.295L209.571 452.752ZM173.26 491.636L167.12 498.148L174.801 504.812L182.479 511.473L189.031 505.033L195.583 498.596L189.234 491.857C181.42 483.57 180.869 483.562 173.26 491.636ZM143.7 498.481C143.7 504.817 144.013 509.5 144.398 508.89C144.781 508.279 147.198 505.275 149.769 502.213C154.237 496.892 154.208 496.437 149.071 491.804C143.773 487.025 143.7 487.115 143.7 498.481ZM211.247 493.014C208.774 496.959 209.185 498.796 213.384 502.583C218.425 507.131 218.583 507.024 218.583 499.019C218.583 489.013 215.39 486.401 211.247 493.014ZM156.056 508.031L148.354 514.781L153.301 524.92L158.249 535.057L167.021 528.081C177.558 519.701 177.756 518.08 169.08 511.281C165.39 508.386 163.055 504.916 163.889 503.567C166.315 499.659 164.307 500.803 156.056 508.031ZM197.857 508.757C190.537 518.654 190.459 520.077 196.942 525.61C201.713 529.678 202.419 529.571 207.717 523.95C213.042 518.302 213.09 509.111 207.795 509.111C206.591 509.111 205.214 507.2 204.738 504.865C204.093 501.704 202.339 502.695 197.857 508.757ZM178.213 530.246C170.26 538.999 170.543 540.119 180.524 539.335C196.733 538.064 198.704 536.39 191.064 530.398C183.172 524.211 183.688 524.216 178.213 530.246ZM212.175 530.835C208.244 535.412 208.019 536.875 210.959 538.735C216.815 542.432 221.26 541.436 221.217 536.432C221.135 527.204 217.321 524.845 212.175 530.835Z" stroke="#A4C3FF" stroke-width="2"/>
</g>
</svg>
